<?xml version="1.0" encoding="UTF-8"?><svg id="Calque_1" xmlns="http://www.w3.org/2000/svg" viewBox="0 0 250.7 456.8"><path d="m19.2,284.8V50.3h113.7c22,0,41.1,3.6,57.2,10.7,16.1,7.2,28.5,17.4,37.3,30.7,8.8,13.3,13.2,29,13.2,47.1s-4.4,33.7-13.2,46.9c-8.8,13.2-21.2,23.4-37.3,30.7-16.1,7.3-35.2,10.9-57.2,10.9H63.4l35.4-33.8v91.5H19.2Zm79.6-82.8l-35.4-35.9h64.5c11,0,19.2-2.5,24.5-7.4,5.3-4.9,7.9-11.6,7.9-20.1s-2.6-15.2-7.9-20.1c-5.3-4.9-13.4-7.4-24.5-7.4H63.4l35.4-35.9v126.7Z" fill="#1a2d34"/></svg>